<svg width="148" height="225" viewBox="0 0 148 225" fill="none" xmlns="http://www.w3.org/2000/svg">
<g clip-path="url(#clip0_6_3)">
<path d="M11.6364 190.773L0.113979 184.42L0 40.7026L74.0297 0L148 40.4097L147.976 184.416L136.443 190.738L136.548 46.489L74.0177 12.5383L11.6684 46.6519L11.6364 190.773Z" fill="white" stroke="black"/>
<path d="M57.0411 215.414V202.703L33.2833 192.26L33.3066 148.418L50.2761 148.506L50.3102 136.204L33.0932 138.126L33.2155 104.489L57.089 93.9584L57.0702 81.1151L23.8763 99.1083C22.8946 99.7334 22.5551 101.109 22.8571 103.235L22.7623 195.656C22.8526 196.868 23.556 197.738 24.8727 198.267L57.0411 215.414Z" fill="white" stroke="black"/>
<path d="M68.0992 48.4587L73.8758 44.9605L79.8263 48.1308L79.8841 221.72L74.0493 225L68.0992 221.501V48.4587Z" fill="white" stroke="black"/>
<path d="M91.0745 81.0768L125.334 99.7487L125.399 109.345L113.315 103.75L113.186 193.089L125.27 187.676L125.206 196.981L91.0745 215.565L91.2031 202.671L102.902 197.501L102.966 99.1138L91.139 93.8828L91.0745 81.0768Z" fill="white" stroke="black"/>
</g>
<defs>
<clipPath id="clip0_6_3">
<rect width="148" height="225" fill="white"/>
</clipPath>
</defs>
</svg>
